<?xml version="1.0" encoding="UTF-8" standalone="no"?>
<!DOCTYPE svg PUBLIC "-//W3C//DTD SVG 1.1//EN" "http://www.w3.org/Graphics/SVG/1.1/DTD/svg11.dtd">
<svg width="100%" height="100%" viewBox="0 0 2350 1618" version="1.1" xmlns="http://www.w3.org/2000/svg" xmlns:xlink="http://www.w3.org/1999/xlink" xml:space="preserve" xmlns:serif="http://www.serif.com/" style="fill-rule:evenodd;clip-rule:evenodd;stroke-linejoin:round;stroke-miterlimit:2;">
    <g transform="matrix(1,0,0,1,-4894,-13798)">
        <g transform="matrix(1,0,0,1,-23034.6,6233.06)">
            <g transform="matrix(0.496742,0,0,0.898543,13872.8,703.852)">
                <rect x="28296.7" y="7635.79" width="4729.54" height="1800.69"/>
            </g>
            <g>
                <g transform="matrix(5.8495,0,0,5.8495,-2632.41,1943.39)">
                    <path d="M5411.05,1064.71C5413.51,1064.71 5415.6,1064.03 5417,1062.81L5415.6,1059.12C5414.05,1060.24 5412.88,1060.65 5411.22,1060.65C5408.15,1060.65 5406.47,1058.82 5406.47,1055.46C5406.47,1052.13 5408.15,1050.3 5411.22,1050.3C5412.88,1050.3 5414.05,1050.7 5415.6,1051.82L5417,1048.14C5415.6,1046.92 5413.51,1046.23 5411.05,1046.23C5405.2,1046.23 5401.56,1049.87 5401.56,1055.46C5401.56,1061.08 5405.2,1064.71 5411.05,1064.71Z" style="fill:rgb(80,200,120);fill-rule:nonzero;"/>
                    <path d="M5418.37,1055.46C5418.37,1061 5421.83,1064.71 5427.4,1064.71C5432.96,1064.71 5436.47,1061.03 5436.47,1055.46C5436.47,1049.89 5432.96,1046.23 5427.4,1046.23C5421.83,1046.23 5418.37,1049.89 5418.37,1055.46ZM5423.28,1055.46C5423.28,1052.08 5424.6,1050.14 5427.4,1050.14C5430.17,1050.14 5431.57,1052.1 5431.57,1055.46C5431.57,1058.82 5430.17,1060.8 5427.4,1060.8C5424.6,1060.8 5423.28,1058.82 5423.28,1055.46Z" style="fill:rgb(80,200,120);fill-rule:nonzero;"/>
                    <path d="M5439.37,1064.43L5443.59,1064.43L5443.59,1055.97L5447.53,1064.43L5450.18,1064.43L5454.17,1055.84L5454.17,1064.43L5458.42,1064.43L5458.42,1046.51L5454.32,1046.51L5448.88,1058.71L5443.44,1046.51L5439.37,1046.51L5439.37,1064.43Z" style="fill:rgb(80,200,120);fill-rule:nonzero;"/>
                    <path d="M5461.85,1064.43L5466.07,1064.43L5466.07,1055.97L5470.01,1064.43L5472.66,1064.43L5476.65,1055.84L5476.65,1064.43L5480.89,1064.43L5480.89,1046.51L5476.8,1046.51L5471.36,1058.71L5465.92,1046.51L5461.85,1046.51L5461.85,1064.43Z" style="fill:rgb(80,200,120);fill-rule:nonzero;"/>
                    <path d="M5492.21,1064.71C5497.55,1064.71 5500.19,1062.07 5500.19,1056.81L5500.19,1046.51L5495.57,1046.51L5495.57,1056.83C5495.57,1059.45 5494.5,1060.8 5492.21,1060.8C5489.9,1060.8 5488.85,1059.45 5488.85,1056.83L5488.85,1046.51L5484.17,1046.51L5484.17,1056.81C5484.17,1062.07 5486.84,1064.71 5492.21,1064.71Z" style="fill:rgb(80,200,120);fill-rule:nonzero;"/>
                    <path d="M5503.35,1064.43L5507.74,1064.43L5507.74,1054.09L5516.03,1064.43L5519.49,1064.43L5519.49,1046.51L5515.14,1046.51L5515.14,1056.86L5506.8,1046.51L5503.35,1046.51L5503.35,1064.43Z" style="fill:rgb(80,200,120);fill-rule:nonzero;"/>
                    <rect x="5522.8" y="1046.51" width="4.704" height="17.926" style="fill:rgb(80,200,120);fill-rule:nonzero;"/>
                    <path d="M5534.9,1064.43L5539.61,1064.43L5539.61,1050.3L5545.05,1050.3L5545.05,1046.51L5529.46,1046.51L5529.46,1050.3L5534.9,1050.3L5534.9,1064.43Z" style="fill:rgb(80,200,120);fill-rule:nonzero;"/>
                    <path d="M5551.81,1064.43L5556.51,1064.43L5556.51,1057.06L5563.56,1046.51L5558.32,1046.51L5554.23,1052.97L5550.13,1046.51L5544.72,1046.51L5551.81,1057.09L5551.81,1064.43Z" style="fill:rgb(80,200,120);fill-rule:nonzero;"/>
                    <path d="M5402.05,1093.68L5409.27,1093.68C5415.65,1093.68 5419.08,1090.27 5419.08,1084.7C5419.08,1079.11 5415.65,1075.75 5409.27,1075.75L5402.05,1075.75L5402.05,1093.68ZM5406.75,1089.86L5406.75,1079.54L5408.96,1079.54C5412.65,1079.54 5414.4,1081.19 5414.4,1084.7C5414.4,1088.21 5412.67,1089.86 5408.96,1089.86L5406.75,1089.86Z" style="fill:rgb(80,200,120);fill-rule:nonzero;"/>
                    <rect x="5421.9" y="1075.75" width="4.704" height="17.926" style="fill:rgb(80,200,120);fill-rule:nonzero;"/>
                    <path d="M5439.07,1093.96C5441.51,1093.96 5444,1093.47 5445.93,1092.56L5445.93,1083.58L5438.38,1083.58L5438.38,1086.84L5442.09,1086.84L5442.09,1089.66C5441.13,1089.91 5440.16,1090.04 5439.32,1090.04C5435.86,1090.04 5434.34,1088.26 5434.34,1084.8C5434.34,1081.32 5436.04,1079.46 5439.6,1079.46C5441.48,1079.46 5442.57,1079.79 5444.18,1080.84L5445.63,1077.25C5444.18,1076.11 5442.14,1075.47 5439.55,1075.47C5433.22,1075.47 5429.43,1079.11 5429.43,1084.8C5429.43,1090.29 5432.76,1093.96 5439.07,1093.96Z" style="fill:rgb(80,200,120);fill-rule:nonzero;"/>
                    <rect x="5448.98" y="1075.75" width="4.704" height="17.926" style="fill:rgb(80,200,120);fill-rule:nonzero;"/>
                    <path d="M5461.09,1093.68L5465.79,1093.68L5465.79,1079.54L5471.23,1079.54L5471.23,1075.75L5455.65,1075.75L5455.65,1079.54L5461.09,1079.54L5461.09,1093.68Z" style="fill:rgb(80,200,120);fill-rule:nonzero;"/>
                    <path d="M5468.99,1093.68L5473.7,1093.68L5475.28,1090.04L5483.36,1090.04L5484.94,1093.68L5489.64,1093.68L5481.2,1075.75L5477.39,1075.75L5468.99,1093.68ZM5479.27,1080.58L5479.39,1080.58L5481.89,1086.48L5476.8,1086.48L5479.27,1080.58Z" style="fill:rgb(80,200,120);fill-rule:nonzero;"/>
                    <path d="M5490.76,1093.68L5503.14,1093.68L5503.14,1089.79L5495.46,1089.79L5495.46,1075.75L5490.76,1075.75L5490.76,1093.68Z" style="fill:rgb(80,200,120);fill-rule:nonzero;"/>
                    <path d="M5406.14,1122.92L5410.84,1122.92L5410.84,1108.78L5416.28,1108.78L5416.28,1104.99L5400.7,1104.99L5400.7,1108.78L5406.14,1108.78L5406.14,1122.92Z" style="fill:rgb(80,200,120);fill-rule:nonzero;"/>
                    <path d="M5416.74,1113.94C5416.74,1119.49 5420.2,1123.2 5425.77,1123.2C5431.34,1123.2 5434.85,1119.51 5434.85,1113.94C5434.85,1108.37 5431.34,1104.71 5425.77,1104.71C5420.2,1104.71 5416.74,1108.37 5416.74,1113.94ZM5421.65,1113.94C5421.65,1110.56 5422.97,1108.63 5425.77,1108.63C5428.54,1108.63 5429.94,1110.59 5429.94,1113.94C5429.94,1117.3 5428.54,1119.28 5425.77,1119.28C5422.97,1119.28 5421.65,1117.3 5421.65,1113.94Z" style="fill:rgb(80,200,120);fill-rule:nonzero;"/>
                    <path d="M5437.19,1113.94C5437.19,1119.49 5440.64,1123.2 5446.21,1123.2C5451.78,1123.2 5455.29,1119.51 5455.29,1113.94C5455.29,1108.37 5451.78,1104.71 5446.21,1104.71C5440.64,1104.71 5437.19,1108.37 5437.19,1113.94ZM5442.09,1113.94C5442.09,1110.56 5443.41,1108.63 5446.21,1108.63C5448.98,1108.63 5450.38,1110.59 5450.38,1113.94C5450.38,1117.3 5448.98,1119.28 5446.21,1119.28C5443.41,1119.28 5442.09,1117.3 5442.09,1113.94Z" style="fill:rgb(80,200,120);fill-rule:nonzero;"/>
                    <path d="M5458.11,1122.92L5470.49,1122.92L5470.49,1119.03L5462.82,1119.03L5462.82,1104.99L5458.11,1104.99L5458.11,1122.92Z" style="fill:rgb(80,200,120);fill-rule:nonzero;"/>
                    <path d="M5479.24,1123.2C5483.87,1123.2 5486.87,1120.93 5486.87,1117.45C5486.87,1114.78 5485.22,1113.1 5481.94,1112.47L5478.89,1111.86C5477.31,1111.53 5476.8,1111.02 5476.8,1110.26C5476.8,1109.16 5477.82,1108.55 5479.78,1108.55C5481.84,1108.55 5483.51,1109.09 5484.89,1110.08L5486.21,1106.67C5484.76,1105.45 5482.42,1104.71 5479.88,1104.71C5475.25,1104.71 5472.2,1107.03 5472.2,1110.56C5472.2,1113.28 5473.8,1114.93 5477.11,1115.62L5480.21,1116.26C5481.81,1116.59 5482.27,1116.99 5482.27,1117.81C5482.27,1118.72 5481.53,1119.36 5479.29,1119.36C5477.06,1119.36 5474.84,1118.7 5473.19,1117.63L5471.87,1121.26C5473.62,1122.46 5476.34,1123.2 5479.24,1123.2Z" style="fill:rgb(80,200,120);fill-rule:nonzero;"/>
                    <path d="M5402.05,1152.16L5406.75,1152.16L5406.75,1145.04L5414.05,1145.04L5414.05,1141.45L5406.75,1141.45L5406.75,1137.82L5414.63,1137.82L5414.63,1134.23L5402.05,1134.23L5402.05,1152.16Z" style="fill:rgb(80,200,120);fill-rule:nonzero;"/>
                    <path d="M5416.18,1143.18C5416.18,1148.73 5419.64,1152.44 5425.21,1152.44C5430.78,1152.44 5434.29,1148.75 5434.29,1143.18C5434.29,1137.61 5430.78,1133.95 5425.21,1133.95C5419.64,1133.95 5416.18,1137.61 5416.18,1143.18ZM5421.09,1143.18C5421.09,1139.8 5422.41,1137.87 5425.21,1137.87C5427.98,1137.87 5429.38,1139.83 5429.38,1143.18C5429.38,1146.54 5427.98,1148.52 5425.21,1148.52C5422.41,1148.52 5421.09,1146.54 5421.09,1143.18Z" style="fill:rgb(80,200,120);fill-rule:nonzero;"/>
                    <path d="M5445.07,1152.44C5450.41,1152.44 5453.05,1149.79 5453.05,1144.53L5453.05,1134.23L5448.42,1134.23L5448.42,1144.56C5448.42,1147.17 5447.36,1148.52 5445.07,1148.52C5442.75,1148.52 5441.71,1147.17 5441.71,1144.56L5441.71,1134.23L5437.03,1134.23L5437.03,1144.53C5437.03,1149.79 5439.7,1152.44 5445.07,1152.44Z" style="fill:rgb(80,200,120);fill-rule:nonzero;"/>
                    <path d="M5456.2,1152.16L5460.6,1152.16L5460.6,1141.81L5468.89,1152.16L5472.35,1152.16L5472.35,1134.23L5468,1134.23L5468,1144.58L5459.66,1134.23L5456.2,1134.23L5456.2,1152.16Z" style="fill:rgb(80,200,120);fill-rule:nonzero;"/>
                    <path d="M5475.66,1152.16L5482.88,1152.16C5489.26,1152.16 5492.69,1148.75 5492.69,1143.18C5492.69,1137.59 5489.26,1134.23 5482.88,1134.23L5475.66,1134.23L5475.66,1152.16ZM5480.36,1148.34L5480.36,1138.02L5482.57,1138.02C5486.26,1138.02 5488.01,1139.67 5488.01,1143.18C5488.01,1146.69 5486.28,1148.34 5482.57,1148.34L5480.36,1148.34Z" style="fill:rgb(80,200,120);fill-rule:nonzero;"/>
                    <path d="M5492.85,1152.16L5497.55,1152.16L5499.12,1148.52L5507.21,1148.52L5508.79,1152.16L5513.49,1152.16L5505.05,1134.23L5501.24,1134.23L5492.85,1152.16ZM5503.12,1139.06L5503.24,1139.06L5505.74,1144.96L5500.65,1144.96L5503.12,1139.06Z" style="fill:rgb(80,200,120);fill-rule:nonzero;"/>
                    <path d="M5516.69,1152.16L5521.4,1152.16L5521.4,1138.02L5526.84,1138.02L5526.84,1134.23L5511.25,1134.23L5511.25,1138.02L5516.69,1138.02L5516.69,1152.16Z" style="fill:rgb(80,200,120);fill-rule:nonzero;"/>
                    <rect x="5528.82" y="1134.23" width="4.704" height="17.926" style="fill:rgb(80,200,120);fill-rule:nonzero;"/>
                    <path d="M5536.35,1143.18C5536.35,1148.73 5539.81,1152.44 5545.38,1152.44C5550.95,1152.44 5554.45,1148.75 5554.45,1143.18C5554.45,1137.61 5550.95,1133.95 5545.38,1133.95C5539.81,1133.95 5536.35,1137.61 5536.35,1143.18ZM5541.26,1143.18C5541.26,1139.8 5542.58,1137.87 5545.38,1137.87C5548.15,1137.87 5549.55,1139.83 5549.55,1143.18C5549.55,1146.54 5548.15,1148.52 5545.38,1148.52C5542.58,1148.52 5541.26,1146.54 5541.26,1143.18Z" style="fill:rgb(80,200,120);fill-rule:nonzero;"/>
                    <path d="M5557.28,1152.16L5561.68,1152.16L5561.68,1141.81L5569.97,1152.16L5573.42,1152.16L5573.42,1134.23L5569.07,1134.23L5569.07,1144.58L5560.73,1134.23L5557.28,1134.23L5557.28,1152.16Z" style="fill:rgb(80,200,120);fill-rule:nonzero;"/>
                </g>
                <g transform="matrix(0.618,0,0,0.618047,8028.16,7755.9)">
                    <g transform="matrix(10.379,0,0,9.38312,-25655.1,-8682.35)">
                        <path d="M5679.26,1118.11C5691.1,1108.59 5700.83,1096.21 5707.7,1081.92L5679.34,1065.24C5674.76,1074.77 5668.28,1083.02 5660.38,1089.37L5679.26,1118.11Z" style="fill:rgb(80,200,120);"/>
                    </g>
                    <g transform="matrix(10.379,0,0,-9.38312,-25655.1,10682.3)">
                        <path d="M5679.26,1118.11C5691.1,1108.59 5700.83,1096.21 5707.7,1081.92L5679.34,1065.24C5674.76,1074.77 5668.28,1083.02 5660.38,1089.37L5679.26,1118.11Z" style="fill:rgb(80,200,120);"/>
                    </g>
                    <g transform="matrix(10.379,0,0,9.38312,-25655.1,-8682.35)">
                        <path d="M5716.45,1056.13C5718.13,1048.18 5718.98,1040.05 5718.98,1031.89C5718.98,1023.73 5718.13,1015.6 5716.45,1007.65L5685.18,1015.73C5686.29,1021.03 5686.86,1026.45 5686.86,1031.89C5686.86,1037.33 5686.29,1042.75 5685.18,1048.05L5716.45,1056.13Z" style="fill:rgb(80,200,120);"/>
                    </g>
                    <g transform="matrix(5.18949,0,0,4.69156,3523.42,-3841.18)">
                        <path d="M5679.26,1118.11C5704.21,1098.06 5718.98,1066 5718.98,1031.89C5718.98,997.774 5704.21,965.721 5679.26,945.669L5622.63,1031.89L5679.26,1118.11Z" style="fill:rgb(80,200,120);"/>
                    </g>
                </g>
            </g>
        </g>
    </g>
</svg>
