<?xml version="1.0" encoding="UTF-8" standalone="no"?>
<!DOCTYPE svg PUBLIC "-//W3C//DTD SVG 1.1//EN" "http://www.w3.org/Graphics/SVG/1.1/DTD/svg11.dtd">
<svg width="100%" height="100%" viewBox="0 0 2350 1618" version="1.1" xmlns="http://www.w3.org/2000/svg" xmlns:xlink="http://www.w3.org/1999/xlink" xml:space="preserve" xmlns:serif="http://www.serif.com/" style="fill-rule:evenodd;clip-rule:evenodd;stroke-linejoin:round;stroke-miterlimit:2;">
    <g transform="matrix(1,0,0,1,-2236,-11871)">
        <g transform="matrix(1,0,0,1,-25693,6444.92)">
            <g transform="matrix(0.496742,0,0,0.898543,13872.8,-1435.01)">
                <rect x="28296.7" y="7635.79" width="4729.54" height="1800.69" style="fill:white;"/>
            </g>
            <g>
                <g transform="matrix(5.91344,0,0,5.91344,-2972.67,-245.986)">
                    <path d="M5402.03,1064.43L5406.68,1064.43L5406.68,1056.44L5406.73,1056.44L5413.82,1064.43L5419.43,1064.43L5411.18,1055.13L5418.95,1046.7L5413.52,1046.7L5406.73,1054.3L5406.68,1054.3L5406.68,1046.7L5402.03,1046.7L5402.03,1064.43Z" style="fill:rgb(80,200,120);fill-rule:nonzero;"/>
                    <path d="M5428.29,1045.04L5432.01,1045.04L5432.01,1041.3L5428.29,1041.3L5428.29,1045.04ZM5423.08,1045.04L5426.83,1045.04L5426.83,1041.3L5423.08,1041.3L5423.08,1045.04ZM5418.6,1055.56C5418.6,1061.04 5422.02,1064.71 5427.53,1064.71C5433.04,1064.71 5436.51,1061.06 5436.51,1055.56C5436.51,1050.05 5433.04,1046.43 5427.53,1046.43C5422.02,1046.43 5418.6,1050.05 5418.6,1055.56ZM5423.46,1055.56C5423.46,1052.21 5424.76,1050.3 5427.53,1050.3C5430.27,1050.3 5431.66,1052.24 5431.66,1055.56C5431.66,1058.88 5430.27,1060.84 5427.53,1060.84C5424.76,1060.84 5423.46,1058.88 5423.46,1055.56Z" style="fill:rgb(80,200,120);fill-rule:nonzero;"/>
                    <path d="M5438.47,1064.43L5452.26,1064.43L5452.26,1060.66L5443.86,1060.66L5451.88,1050.1L5451.88,1046.7L5438.47,1046.7L5438.47,1050.47L5446.47,1050.47L5438.47,1061.04L5438.47,1064.43Z" style="fill:rgb(80,200,120);fill-rule:nonzero;"/>
                    <path d="M5463.42,1045.04L5467.15,1045.04L5467.15,1041.3L5463.42,1041.3L5463.42,1045.04ZM5458.22,1045.04L5461.96,1045.04L5461.96,1041.3L5458.22,1041.3L5458.22,1045.04ZM5453.74,1055.56C5453.74,1061.04 5457.16,1064.71 5462.67,1064.71C5468.18,1064.71 5471.65,1061.06 5471.65,1055.56C5471.65,1050.05 5468.18,1046.43 5462.67,1046.43C5457.16,1046.43 5453.74,1050.05 5453.74,1055.56ZM5458.59,1055.56C5458.59,1052.21 5459.9,1050.3 5462.67,1050.3C5465.41,1050.3 5466.79,1052.24 5466.79,1055.56C5466.79,1058.88 5465.41,1060.84 5462.67,1060.84C5459.9,1060.84 5458.59,1058.88 5458.59,1055.56Z" style="fill:rgb(80,200,120);fill-rule:nonzero;"/>
                    <path d="M5481.11,1064.71C5485.68,1064.71 5488.65,1062.47 5488.65,1059.03C5488.65,1056.39 5487.02,1054.73 5483.77,1054.1L5480.75,1053.49C5479.19,1053.17 5478.69,1052.66 5478.69,1051.91C5478.69,1050.83 5479.7,1050.22 5481.63,1050.22C5483.67,1050.22 5485.33,1050.75 5486.69,1051.73L5488,1048.36C5486.56,1047.15 5484.25,1046.43 5481.73,1046.43C5477.16,1046.43 5474.14,1048.71 5474.14,1052.21C5474.14,1054.9 5475.72,1056.54 5478.99,1057.22L5482.06,1057.85C5483.65,1058.17 5484.1,1058.57 5484.1,1059.38C5484.1,1060.29 5483.37,1060.91 5481.15,1060.91C5478.94,1060.91 5476.75,1060.26 5475.12,1059.2L5473.81,1062.8C5475.55,1063.98 5478.24,1064.71 5481.11,1064.71Z" style="fill:rgb(80,200,120);fill-rule:nonzero;"/>
                    <path d="M5497.96,1064.71C5502.53,1064.71 5505.5,1062.47 5505.5,1059.03C5505.5,1056.39 5503.87,1054.73 5500.62,1054.1L5497.61,1053.49C5496.05,1053.17 5495.54,1052.66 5495.54,1051.91C5495.54,1050.83 5496.55,1050.22 5498.48,1050.22C5500.52,1050.22 5502.18,1050.75 5503.54,1051.73L5504.85,1048.36C5503.41,1047.15 5501.1,1046.43 5498.59,1046.43C5494.01,1046.43 5490.99,1048.71 5490.99,1052.21C5490.99,1054.9 5492.57,1056.54 5495.84,1057.22L5498.91,1057.85C5500.5,1058.17 5500.95,1058.57 5500.95,1059.38C5500.95,1060.29 5500.22,1060.91 5498.01,1060.91C5495.79,1060.91 5493.61,1060.26 5491.97,1059.2L5490.66,1062.8C5492.4,1063.98 5495.09,1064.71 5497.96,1064.71Z" style="fill:rgb(80,200,120);fill-rule:nonzero;"/>
                    <path d="M5513.5,1045.19L5516.57,1045.19L5520.97,1040.77L5516.49,1040.77L5513.5,1045.19ZM5508.14,1064.43L5520.87,1064.43L5520.87,1060.86L5512.6,1060.86L5512.6,1057.22L5520.27,1057.22L5520.27,1053.64L5512.6,1053.64L5512.6,1050.25L5520.87,1050.25L5520.87,1046.7L5508.14,1046.7L5508.14,1064.43Z" style="fill:rgb(80,200,120);fill-rule:nonzero;"/>
                    <path d="M5532.42,1064.71C5534.83,1064.71 5537.3,1064.23 5539.21,1063.33L5539.21,1054.45L5531.74,1054.45L5531.74,1057.67L5535.41,1057.67L5535.41,1060.46C5534.45,1060.71 5533.5,1060.84 5532.67,1060.84C5529.25,1060.84 5527.74,1059.08 5527.74,1055.66C5527.74,1052.21 5529.42,1050.38 5532.94,1050.38C5534.81,1050.38 5535.89,1050.7 5537.47,1051.73L5538.9,1048.19C5537.47,1047.06 5535.46,1046.43 5532.89,1046.43C5526.63,1046.43 5522.88,1050.02 5522.88,1055.66C5522.88,1061.09 5526.18,1064.71 5532.42,1064.71Z" style="fill:rgb(80,200,120);fill-rule:nonzero;"/>
                    <rect x="5542.23" y="1046.7" width="4.653" height="17.732" style="fill:rgb(80,200,120);fill-rule:nonzero;"/>
                    <path d="M5402.03,1093.36L5409.17,1093.36C5415.48,1093.36 5418.88,1089.99 5418.88,1084.48C5418.88,1078.95 5415.48,1075.63 5409.17,1075.63L5402.03,1075.63L5402.03,1093.36ZM5406.68,1089.59L5406.68,1079.38L5408.87,1079.38C5412.52,1079.38 5414.25,1081.01 5414.25,1084.48C5414.25,1087.95 5412.54,1089.59 5408.87,1089.59L5406.68,1089.59Z" style="fill:rgb(80,200,120);fill-rule:nonzero;"/>
                    <rect x="5421.67" y="1075.63" width="4.653" height="17.732" style="fill:rgb(80,200,120);fill-rule:nonzero;"/>
                    <path d="M5438.65,1093.64C5441.06,1093.64 5443.53,1093.16 5445.44,1092.25L5445.44,1083.37L5437.97,1083.37L5437.97,1086.59L5441.64,1086.59L5441.64,1089.39C5440.69,1089.64 5439.73,1089.76 5438.9,1089.76C5435.48,1089.76 5433.97,1088 5433.97,1084.58C5433.97,1081.14 5435.65,1079.3 5439.18,1079.3C5441.04,1079.3 5442.12,1079.63 5443.7,1080.66L5445.14,1077.11C5443.7,1075.98 5441.69,1075.35 5439.13,1075.35C5432.86,1075.35 5429.12,1078.95 5429.12,1084.58C5429.12,1090.02 5432.41,1093.64 5438.65,1093.64Z" style="fill:rgb(80,200,120);fill-rule:nonzero;"/>
                    <rect x="5448.46" y="1075.63" width="4.653" height="17.732" style="fill:rgb(80,200,120);fill-rule:nonzero;"/>
                    <path d="M5460.43,1093.36L5465.08,1093.36L5465.08,1079.38L5470.47,1079.38L5470.47,1075.63L5455.05,1075.63L5455.05,1079.38L5460.43,1079.38L5460.43,1093.36Z" style="fill:rgb(80,200,120);fill-rule:nonzero;"/>
                    <path d="M5476.93,1074.12L5480,1074.12L5484.4,1069.69L5479.92,1069.69L5476.93,1074.12ZM5468.25,1093.36L5472.91,1093.36L5474.47,1089.76L5482.46,1089.76L5484.02,1093.36L5488.68,1093.36L5480.32,1075.63L5476.55,1075.63L5468.25,1093.36ZM5478.41,1080.41L5478.54,1080.41L5481.01,1086.24L5475.97,1086.24L5478.41,1080.41Z" style="fill:rgb(80,200,120);fill-rule:nonzero;"/>
                    <path d="M5489.78,1093.36L5502.03,1093.36L5502.03,1089.51L5494.44,1089.51L5494.44,1075.63L5489.78,1075.63L5489.78,1093.36Z" style="fill:rgb(80,200,120);fill-rule:nonzero;"/>
                    <rect x="5504.32" y="1075.63" width="4.653" height="17.732" style="fill:rgb(80,200,120);fill-rule:nonzero;"/>
                    <path d="M5518.91,1093.64C5523.49,1093.64 5526.45,1091.4 5526.45,1087.95C5526.45,1085.31 5524.82,1083.65 5521.57,1083.02L5518.56,1082.42C5517,1082.09 5516.49,1081.59 5516.49,1080.83C5516.49,1079.75 5517.5,1079.15 5519.44,1079.15C5521.47,1079.15 5523.13,1079.68 5524.49,1080.66L5525.8,1077.29C5524.37,1076.08 5522.05,1075.35 5519.54,1075.35C5514.96,1075.35 5511.94,1077.64 5511.94,1081.14C5511.94,1083.83 5513.53,1085.46 5516.8,1086.14L5519.86,1086.77C5521.45,1087.1 5521.9,1087.5 5521.9,1088.3C5521.9,1089.21 5521.17,1089.84 5518.96,1089.84C5516.75,1089.84 5514.56,1089.18 5512.92,1088.13L5511.61,1091.72C5513.35,1092.91 5516.04,1093.64 5518.91,1093.64Z" style="fill:rgb(80,200,120);fill-rule:nonzero;"/>
                    <path d="M5402.03,1122.29L5414.75,1122.29L5414.75,1118.71L5406.48,1118.71L5406.48,1115.07L5414.15,1115.07L5414.15,1111.5L5406.48,1111.5L5406.48,1108.1L5414.75,1108.1L5414.75,1104.55L5402.03,1104.55L5402.03,1122.29Z" style="fill:rgb(80,200,120);fill-rule:nonzero;"/>
                    <path d="M5423.61,1122.56C5428.19,1122.56 5431.15,1120.32 5431.15,1116.88C5431.15,1114.24 5429.52,1112.58 5426.27,1111.95L5423.26,1111.34C5421.7,1111.02 5421.19,1110.51 5421.19,1109.76C5421.19,1108.68 5422.2,1108.07 5424.14,1108.07C5426.17,1108.07 5427.83,1108.6 5429.19,1109.58L5430.5,1106.21C5429.07,1105.01 5426.75,1104.28 5424.24,1104.28C5419.66,1104.28 5416.64,1106.57 5416.64,1110.06C5416.64,1112.75 5418.23,1114.39 5421.49,1115.07L5424.56,1115.69C5426.15,1116.02 5426.6,1116.42 5426.6,1117.23C5426.6,1118.13 5425.87,1118.76 5423.66,1118.76C5421.44,1118.76 5419.26,1118.11 5417.62,1117.05L5416.31,1120.65C5418.05,1121.83 5420.74,1122.56 5423.61,1122.56Z" style="fill:rgb(80,200,120);fill-rule:nonzero;"/>
                    <path d="M5433.11,1122.29L5446.9,1122.29L5446.9,1118.51L5438.5,1118.51L5446.52,1107.95L5446.52,1104.55L5433.11,1104.55L5433.11,1108.33L5441.11,1108.33L5433.11,1118.89L5433.11,1122.29Z" style="fill:rgb(80,200,120);fill-rule:nonzero;"/>
                    <path d="M5449.24,1122.29L5453.89,1122.29L5453.89,1114.29L5453.94,1114.29L5461.03,1122.29L5466.64,1122.29L5458.39,1112.98L5466.16,1104.55L5460.73,1104.55L5453.94,1112.15L5453.89,1112.15L5453.89,1104.55L5449.24,1104.55L5449.24,1122.29Z" style="fill:rgb(80,200,120);fill-rule:nonzero;"/>
                    <path d="M5475.5,1102.89L5479.22,1102.89L5479.22,1099.14L5475.5,1099.14L5475.5,1102.89ZM5470.29,1102.89L5474.04,1102.89L5474.04,1099.14L5470.29,1099.14L5470.29,1102.89ZM5465.81,1113.41C5465.81,1118.89 5469.23,1122.56 5474.74,1122.56C5480.25,1122.56 5483.72,1118.91 5483.72,1113.41C5483.72,1107.9 5480.25,1104.28 5474.74,1104.28C5469.23,1104.28 5465.81,1107.9 5465.81,1113.41ZM5470.67,1113.41C5470.67,1110.06 5471.98,1108.15 5474.74,1108.15C5477.48,1108.15 5478.87,1110.09 5478.87,1113.41C5478.87,1116.73 5477.48,1118.69 5474.74,1118.69C5471.98,1118.69 5470.67,1116.73 5470.67,1113.41Z" style="fill:rgb(80,200,120);fill-rule:nonzero;"/>
                    <path d="M5485.68,1122.29L5499.47,1122.29L5499.47,1118.51L5491.07,1118.51L5499.09,1107.95L5499.09,1104.55L5485.68,1104.55L5485.68,1108.33L5493.68,1108.33L5485.68,1118.89L5485.68,1122.29Z" style="fill:rgb(80,200,120);fill-rule:nonzero;"/>
                    <path d="M5510.63,1102.89L5514.36,1102.89L5514.36,1099.14L5510.63,1099.14L5510.63,1102.89ZM5505.43,1102.89L5509.18,1102.89L5509.18,1099.14L5505.43,1099.14L5505.43,1102.89ZM5500.95,1113.41C5500.95,1118.89 5504.37,1122.56 5509.88,1122.56C5515.39,1122.56 5518.86,1118.91 5518.86,1113.41C5518.86,1107.9 5515.39,1104.28 5509.88,1104.28C5504.37,1104.28 5500.95,1107.9 5500.95,1113.41ZM5505.81,1113.41C5505.81,1110.06 5507.11,1108.15 5509.88,1108.15C5512.62,1108.15 5514,1110.09 5514,1113.41C5514,1116.73 5512.62,1118.69 5509.88,1118.69C5507.11,1118.69 5505.81,1116.73 5505.81,1113.41Z" style="fill:rgb(80,200,120);fill-rule:nonzero;"/>
                    <path d="M5521.65,1122.29L5526.3,1122.29L5526.3,1114.29L5526.35,1114.29L5533.45,1122.29L5539.06,1122.29L5530.81,1112.98L5538.58,1104.55L5533.15,1104.55L5526.35,1112.15L5526.3,1112.15L5526.3,1104.55L5521.65,1104.55L5521.65,1122.29Z" style="fill:rgb(80,200,120);fill-rule:nonzero;"/>
                    <path d="M5399.84,1151.21L5404.49,1151.21L5406.05,1147.61L5414.05,1147.61L5415.61,1151.21L5420.26,1151.21L5411.91,1133.48L5408.14,1133.48L5399.84,1151.21ZM5410,1138.26L5410.13,1138.26L5412.59,1144.09L5407.56,1144.09L5410,1138.26Z" style="fill:rgb(80,200,120);fill-rule:nonzero;"/>
                    <path d="M5421.37,1151.21L5433.62,1151.21L5433.62,1147.36L5426.02,1147.36L5426.02,1133.48L5421.37,1133.48L5421.37,1151.21Z" style="fill:rgb(80,200,120);fill-rule:nonzero;"/>
                    <path d="M5433.49,1151.21L5438.15,1151.21L5439.7,1147.61L5447.7,1147.61L5449.26,1151.21L5453.92,1151.21L5445.57,1133.48L5441.79,1133.48L5433.49,1151.21ZM5443.65,1138.26L5443.78,1138.26L5446.24,1144.09L5441.21,1144.09L5443.65,1138.26Z" style="fill:rgb(80,200,120);fill-rule:nonzero;"/>
                    <path d="M5455.02,1151.21L5459.68,1151.21L5459.68,1144.6L5463.73,1144.6C5467.78,1144.6 5469.91,1142.43 5469.91,1139.04C5469.91,1135.64 5467.78,1133.48 5463.73,1133.48L5455.02,1133.48L5455.02,1151.21ZM5459.68,1141.02L5459.68,1137.02L5463.12,1137.02C5464.71,1137.02 5465.46,1137.75 5465.46,1139.04C5465.46,1140.32 5464.71,1141.02 5463.12,1141.02L5459.68,1141.02Z" style="fill:rgb(80,200,120);fill-rule:nonzero;"/>
                    <path d="M5473.01,1131.97L5476.07,1131.97L5480.48,1127.54L5476,1127.54L5473.01,1131.97ZM5472.23,1151.21L5476.88,1151.21L5476.88,1133.48L5472.23,1133.48L5472.23,1151.21Z" style="fill:rgb(80,200,120);fill-rule:nonzero;"/>
                    <path d="M5484.2,1151.21L5488.85,1151.21L5488.85,1137.23L5494.23,1137.23L5494.23,1133.48L5478.82,1133.48L5478.82,1137.23L5484.2,1137.23L5484.2,1151.21Z" style="fill:rgb(80,200,120);fill-rule:nonzero;"/>
                    <path d="M5502.56,1151.21L5506.31,1151.21L5514.36,1133.48L5509.55,1133.48L5504.55,1145.32L5499.49,1133.48L5494.51,1133.48L5502.56,1151.21Z" style="fill:rgb(80,200,120);fill-rule:nonzero;"/>
                    <path d="M5520.32,1131.97L5523.39,1131.97L5527.79,1127.54L5523.31,1127.54L5520.32,1131.97ZM5511.64,1151.21L5516.29,1151.21L5517.85,1147.61L5525.85,1147.61L5527.41,1151.21L5532.06,1151.21L5523.71,1133.48L5519.94,1133.48L5511.64,1151.21ZM5521.8,1138.26L5521.93,1138.26L5524.39,1144.09L5519.36,1144.09L5521.8,1138.26Z" style="fill:rgb(80,200,120);fill-rule:nonzero;"/>
                    <path d="M5533.17,1151.21L5537.52,1151.21L5537.52,1140.97L5545.72,1151.21L5549.14,1151.21L5549.14,1133.48L5544.84,1133.48L5544.84,1143.71L5536.59,1133.48L5533.17,1133.48L5533.17,1151.21Z" style="fill:rgb(80,200,120);fill-rule:nonzero;"/>
                    <path d="M5556.71,1151.21L5561.37,1151.21L5561.37,1143.92L5568.33,1133.48L5563.15,1133.48L5559.1,1139.87L5555.05,1133.48L5549.69,1133.48L5556.71,1143.94L5556.71,1151.21Z" style="fill:rgb(80,200,120);fill-rule:nonzero;"/>
                </g>
                <g transform="matrix(0.618,0,0,0.618047,8028.16,5617.04)">
                    <g transform="matrix(10.379,0,0,9.38312,-25655.1,-8682.35)">
                        <path d="M5679.26,1118.11C5691.1,1108.59 5700.83,1096.21 5707.7,1081.92L5679.34,1065.24C5674.76,1074.77 5668.28,1083.02 5660.38,1089.37L5679.26,1118.11Z" style="fill:rgb(80,200,120);"/>
                    </g>
                    <g transform="matrix(10.379,0,0,-9.38312,-25655.1,10682.3)">
                        <path d="M5679.26,1118.11C5691.1,1108.59 5700.83,1096.21 5707.7,1081.92L5679.34,1065.24C5674.76,1074.77 5668.28,1083.02 5660.38,1089.37L5679.26,1118.11Z" style="fill:rgb(80,200,120);"/>
                    </g>
                    <g transform="matrix(10.379,0,0,9.38312,-25655.1,-8682.35)">
                        <path d="M5716.45,1056.13C5718.13,1048.18 5718.98,1040.05 5718.98,1031.89C5718.98,1023.73 5718.13,1015.6 5716.45,1007.65L5685.18,1015.73C5686.29,1021.03 5686.86,1026.45 5686.86,1031.89C5686.86,1037.33 5686.29,1042.75 5685.18,1048.05L5716.45,1056.13Z" style="fill:rgb(80,200,120);"/>
                    </g>
                    <g transform="matrix(5.18949,0,0,4.69156,3523.42,-3841.18)">
                        <path d="M5679.26,1118.11C5704.21,1098.06 5718.98,1066 5718.98,1031.89C5718.98,997.774 5704.21,965.721 5679.26,945.669L5622.63,1031.89L5679.26,1118.11Z" style="fill:rgb(80,200,120);"/>
                    </g>
                </g>
            </g>
        </g>
    </g>
</svg>
