<?xml version="1.0" encoding="UTF-8" standalone="no"?>
<!DOCTYPE svg PUBLIC "-//W3C//DTD SVG 1.1//EN" "http://www.w3.org/Graphics/SVG/1.1/DTD/svg11.dtd">
<svg width="100%" height="100%" viewBox="0 0 1618 1618" version="1.1" xmlns="http://www.w3.org/2000/svg" xmlns:xlink="http://www.w3.org/1999/xlink" xml:space="preserve" xmlns:serif="http://www.serif.com/" style="fill-rule:evenodd;clip-rule:evenodd;stroke-linejoin:round;stroke-miterlimit:2;">
    <g transform="matrix(1,0,0,1,-309,-2236)">
        <g transform="matrix(1,0,0,1,-31173.6,1224.01)">
            <g transform="matrix(0.546803,0,0,0.55514,13452.2,741.224)">
                <rect x="32974.3" y="487.749" width="2959.02" height="2914.58"/>
            </g>
            <g transform="matrix(0.618,0,0,0.618047,11772.8,1202.96)">
                <g transform="matrix(10.379,0,0,9.38312,-25655.1,-8682.35)">
                    <path d="M5679.26,1118.11C5691.1,1108.59 5700.83,1096.21 5707.7,1081.92L5679.34,1065.24C5674.76,1074.77 5668.28,1083.02 5660.38,1089.37L5679.26,1118.11Z" style="fill:white;"/>
                </g>
                <g transform="matrix(10.379,0,0,-9.38312,-25655.1,10682.3)">
                    <path d="M5679.26,1118.11C5691.1,1108.59 5700.83,1096.21 5707.7,1081.92L5679.34,1065.24C5674.76,1074.77 5668.28,1083.02 5660.38,1089.37L5679.26,1118.11Z" style="fill:white;"/>
                </g>
                <g transform="matrix(10.379,0,0,9.38312,-25655.1,-8682.35)">
                    <path d="M5716.45,1056.13C5718.13,1048.18 5718.98,1040.05 5718.98,1031.89C5718.98,1023.73 5718.13,1015.6 5716.45,1007.65L5685.18,1015.73C5686.29,1021.03 5686.86,1026.45 5686.86,1031.89C5686.86,1037.33 5686.29,1042.75 5685.18,1048.05L5716.45,1056.13Z" style="fill:white;"/>
                </g>
                <g transform="matrix(5.18949,0,0,4.69156,3523.42,-3841.18)">
                    <path d="M5679.26,1118.11C5704.21,1098.06 5718.98,1066 5718.98,1031.89C5718.98,997.774 5704.21,965.721 5679.26,945.669L5622.63,1031.89L5679.26,1118.11Z" style="fill:white;"/>
                </g>
            </g>
        </g>
    </g>
</svg>
